<?xml version="1.0" encoding="utf-8"?>
<!-- Generator: Adobe Illustrator 21.0.0, SVG Export Plug-In . SVG Version: 6.00 Build 0)  -->
<svg version="1.1" id="Layer_1" xmlns="http://www.w3.org/2000/svg" xmlns:xlink="http://www.w3.org/1999/xlink" x="0px" y="0px"
	 viewBox="0 0 792 612" style="enable-background:new 0 0 792 612;" xml:space="preserve">
<style type="text/css">
	.st0{fill:none;stroke:#000000;stroke-miterlimit:10;}
</style>
<circle class="st0" cx="207.4" cy="134.3" r="4.6"/>
<circle class="st0" cx="207.4" cy="13.1" r="4.6"/>
<circle class="st0" cx="12.3" cy="13.1" r="4.6"/>
<circle class="st0" cx="12.3" cy="134.3" r="4.6"/>
<path class="st0" d="M219.7,6.8v133.9c0,3.7-3,6.8-6.8,6.8H6.8c-3.7,0-6.8-3-6.8-6.8v-15.3h18.4c2.4,0,4.4-2,4.4-4.4V81.8h4.1
	c2.4,0,4.4-2,4.4-4.4v-8.2c0-2.4-2-4.4-4.4-4.4h-4.1V25.6c0-2.4-2-4.4-4.4-4.4H0V6.8C0,3,3,0,6.8,0h206.2C216.7,0,219.7,3,219.7,6.8
	z"/>
<rect class="st0" width="252" height="180"/>
</svg>
